<svg width="216" height="81" viewBox="0 0 216 81" fill="none" xmlns="http://www.w3.org/2000/svg">
<g clip-path="url(#clip0_100:109)">
<rect width="216" height="81" fill="#242422"/>
<line y1="-0.5" x2="93.39" y2="-0.5" transform="matrix(0.999948 -0.0102211 0.00998134 0.99995 65 18.9545)" stroke="#FBF6E5"/>
<line y1="-0.5" x2="93.39" y2="-0.5" transform="matrix(0.999948 -0.0102211 0.00998134 0.99995 67 67.9545)" stroke="#FBF6E5"/>
<path d="M66.8652 24.625C67.1777 24.625 68.2714 24.5781 70.1464 24.4844C70.1933 24.625 70.2167 24.7656 70.2167 24.9062C70.2167 25.2031 70.1855 25.3516 70.123 25.3516C69.9823 25.3516 69.7011 25.4219 69.2792 25.5625C68.8573 25.6875 68.6308 25.8047 68.5995 25.9141C68.4902 26.3359 68.4355 27 68.4355 27.9062V31.6094C68.4355 31.6719 68.4511 31.7188 68.4823 31.75C68.5136 31.7812 68.5448 31.7969 68.5761 31.7969H68.5995H68.7636C68.873 31.7969 69.2167 31.5 69.7948 30.9062C71.1386 29.5312 72.5605 27.9844 74.0605 26.2656C74.1855 26.1094 74.248 25.9297 74.248 25.7266C74.248 25.5703 74.0761 25.4609 73.7323 25.3984C73.3886 25.3359 73.0917 25.3047 72.8417 25.3047C72.7792 25.3047 72.7323 25.1953 72.7011 24.9766C72.6698 24.7578 72.6698 24.5938 72.7011 24.4844C74.4355 24.5781 75.4823 24.625 75.8417 24.625C76.0292 24.625 77.0605 24.5781 78.9355 24.4844C78.9667 24.5469 78.9745 24.7031 78.9589 24.9531C78.9589 25.1875 78.9355 25.3047 78.8886 25.3047L78.748 25.3281C78.6542 25.3281 78.5605 25.3359 78.4667 25.3516C78.3886 25.3516 78.2792 25.3672 78.1386 25.3984C77.998 25.4141 77.8652 25.4375 77.7402 25.4688C77.6152 25.4844 77.4745 25.5234 77.3183 25.5859C77.162 25.6328 77.0214 25.6875 76.8964 25.75C76.7714 25.8125 76.6386 25.8906 76.498 25.9844C76.373 26.0625 76.2636 26.1562 76.1698 26.2656L72.1386 30.7188C71.9355 30.9531 71.9277 31.1797 72.1152 31.3984L77.6698 38.6406C77.8417 38.8438 78.1073 38.9922 78.4667 39.0859C78.8417 39.1797 79.123 39.2266 79.3105 39.2266C79.373 39.2266 79.4042 39.375 79.4042 39.6719C79.4042 39.8281 79.373 39.9688 79.3105 40.0938C79.2948 40.0938 78.7948 40.0625 77.8105 40C76.8417 39.9375 76.162 39.9062 75.7714 39.9062C74.9277 39.9062 73.8183 39.9688 72.4433 40.0938C72.3808 40.0312 72.3495 39.875 72.3495 39.625C72.3495 39.3594 72.3808 39.2266 72.4433 39.2266C72.6152 39.2266 72.8417 39.1797 73.123 39.0859C73.4042 38.9922 73.5448 38.8828 73.5448 38.7578C73.5448 38.2578 72.1542 36.4375 69.373 33.2969C69.3261 33.25 69.2167 33.2266 69.0448 33.2266C68.6386 33.2266 68.4355 33.3594 68.4355 33.625V36.5781C68.4355 37.4688 68.498 38.1562 68.623 38.6406C68.6542 38.75 68.8652 38.875 69.2558 39.0156C69.662 39.1562 69.9355 39.2266 70.0761 39.2266C70.1386 39.2266 70.1698 39.375 70.1698 39.6719C70.1698 39.8594 70.1542 40 70.123 40.0938C70.0136 40.0938 69.5448 40.0625 68.7167 40C67.8886 39.9375 67.2714 39.9062 66.8652 39.9062C66.4433 39.9062 65.8261 39.9375 65.0136 40C64.2011 40.0469 63.6855 40.0781 63.4667 40.0938C63.4042 40.0312 63.373 39.9062 63.373 39.7188C63.373 39.3906 63.3964 39.2266 63.4433 39.2266C63.6152 39.2266 63.9042 39.1641 64.3105 39.0391C64.7167 38.8984 64.9433 38.7656 64.9902 38.6406C65.0995 38.2188 65.1542 37.5938 65.1542 36.7656V27.7656C65.1542 26.7656 65.0917 26.1562 64.9667 25.9375C64.8886 25.8125 64.6698 25.6875 64.3105 25.5625C63.9511 25.4219 63.6855 25.3516 63.5136 25.3516C63.4511 25.3516 63.4198 25.2188 63.4198 24.9531C63.4198 24.6719 63.4355 24.5156 63.4667 24.4844C65.623 24.5781 66.7558 24.625 66.8652 24.625ZM88.3489 30.8125C87.7395 30.8125 87.2942 31.1094 87.013 31.7031C86.7317 32.2812 86.5911 32.8516 86.5911 33.4141C86.5911 33.5078 86.6458 33.5547 86.7552 33.5547H89.7317C89.9505 33.5547 90.0598 33.4062 90.0598 33.1094C90.0598 32.5156 89.8958 31.9844 89.5677 31.5156C89.2552 31.0469 88.8489 30.8125 88.3489 30.8125ZM88.4661 29.5234C89.8723 29.5234 90.9973 30.0156 91.8411 31C92.7005 31.9688 93.1302 32.9609 93.1302 33.9766C93.1302 34.3359 93.052 34.5703 92.8958 34.6797C92.7552 34.7891 92.4661 34.8438 92.0286 34.8438H86.7317C86.638 34.8438 86.5911 34.8984 86.5911 35.0078C86.5911 35.8516 86.8255 36.6094 87.2942 37.2812C87.7786 37.9531 88.4661 38.2891 89.3567 38.2891C89.8723 38.2891 90.3645 38.2188 90.8333 38.0781C91.302 37.9219 91.6302 37.7891 91.8177 37.6797C92.0052 37.5547 92.2552 37.375 92.5677 37.1406C92.7083 37.2031 92.7786 37.3516 92.7786 37.5859C92.7786 37.7734 92.7473 37.9297 92.6848 38.0547C92.5286 38.4297 92.0598 38.875 91.2786 39.3906C90.4973 39.9062 89.6223 40.1641 88.6536 40.1641C87.2161 40.1641 85.9739 39.6406 84.927 38.5938C83.8958 37.5469 83.3802 36.2891 83.3802 34.8203C83.3802 33.3203 83.8489 32.0625 84.7864 31.0469C85.7239 30.0312 86.9505 29.5234 88.4661 29.5234ZM98.7233 26.8047C98.3795 26.4609 98.2077 26.0469 98.2077 25.5625C98.2077 25.0781 98.3795 24.6719 98.7233 24.3438C99.067 24 99.4733 23.8281 99.942 23.8281C100.426 23.8281 100.833 24 101.161 24.3438C101.505 24.6719 101.676 25.0781 101.676 25.5625C101.676 26.0469 101.505 26.4609 101.161 26.8047C100.833 27.1328 100.426 27.2969 99.942 27.2969C99.4733 27.2969 99.067 27.1328 98.7233 26.8047ZM101.676 36.5078C101.676 37.5078 101.731 38.2188 101.84 38.6406C101.872 38.75 102.09 38.875 102.497 39.0156C102.919 39.1562 103.192 39.2266 103.317 39.2266C103.38 39.2266 103.411 39.3594 103.411 39.625C103.411 39.875 103.395 40.0312 103.364 40.0938C103.208 40.0781 102.723 40.0469 101.911 40C101.098 39.9375 100.512 39.9062 100.153 39.9062C99.778 39.9062 99.192 39.9375 98.3952 40C97.6139 40.0469 97.1295 40.0781 96.942 40.0938C96.8952 40.0312 96.8717 39.875 96.8717 39.625C96.8717 39.3594 96.8952 39.2266 96.942 39.2266C97.1295 39.2266 97.4186 39.1562 97.8092 39.0156C98.2155 38.875 98.4342 38.75 98.4655 38.6406C98.5748 38.1719 98.6295 37.5781 98.6295 36.8594V33.6484C98.6295 32.7734 98.4889 32.1875 98.2077 31.8906C98.0983 31.7656 97.9342 31.6641 97.7155 31.5859C97.5123 31.5078 97.3248 31.4531 97.153 31.4219C96.9967 31.3906 96.9186 31.3672 96.9186 31.3516C96.9186 30.8047 96.9577 30.5312 97.0358 30.5312C97.3483 30.5312 98.028 30.4297 99.0748 30.2266C100.137 30.0078 100.887 29.8281 101.325 29.6875C101.34 29.6875 101.387 29.6797 101.465 29.6641C101.544 29.6328 101.583 29.6172 101.583 29.6172C101.676 29.6172 101.755 29.6719 101.817 29.7812C101.895 29.875 101.934 29.9531 101.934 30.0156C101.919 30.1406 101.887 30.375 101.84 30.7188C101.794 31.0625 101.755 31.3672 101.723 31.6328C101.692 31.8828 101.676 32.125 101.676 32.3594V36.5078ZM108.793 31.3281H107.27C107.145 31.3281 107.082 31.0859 107.082 30.6016C107.082 30.4766 107.098 30.3906 107.129 30.3438C108.004 29.9062 108.707 29.4844 109.238 29.0781C109.473 28.9062 109.746 28.6875 110.059 28.4219C110.371 28.1406 110.637 27.9062 110.855 27.7188C111.09 27.5156 111.215 27.4062 111.23 27.3906C111.355 27.3906 111.488 27.4219 111.629 27.4844C111.77 27.5312 111.84 27.5859 111.84 27.6484V29.9453H114.371C114.496 29.9453 114.559 30.0234 114.559 30.1797C114.559 30.6328 114.48 31.0156 114.324 31.3281H111.84V36.8828C111.84 38.0703 112.262 38.6641 113.105 38.6641C113.34 38.6641 113.551 38.6406 113.738 38.5938C113.941 38.5312 114.098 38.4688 114.207 38.4062C114.316 38.3438 114.379 38.3125 114.395 38.3125C114.457 38.3125 114.52 38.3906 114.582 38.5469C114.66 38.7031 114.699 38.8203 114.699 38.8984C114.699 39.0859 114.379 39.3438 113.738 39.6719C113.098 40 112.496 40.1641 111.934 40.1641C111.074 40.1641 110.332 39.8984 109.707 39.3672C109.098 38.8203 108.793 37.9453 108.793 36.7422V31.3281ZM126.972 29.5469C127.878 29.5469 128.613 29.9297 129.175 30.6953C129.753 31.4609 130.042 32.625 130.042 34.1875V36.5078C130.042 37.5078 130.097 38.2188 130.206 38.6406C130.238 38.75 130.456 38.875 130.863 39.0156C131.269 39.1562 131.542 39.2266 131.683 39.2266C131.73 39.2266 131.753 39.3594 131.753 39.625C131.769 39.875 131.761 40.0312 131.73 40.0938C131.558 40.0781 131.066 40.0469 130.253 40C129.456 39.9375 128.878 39.9062 128.519 39.9062C128.144 39.9062 127.574 39.9375 126.808 40C126.058 40.0469 125.589 40.0781 125.402 40.0938C125.339 40.0312 125.308 39.875 125.308 39.625C125.308 39.3594 125.339 39.2266 125.402 39.2266C125.574 39.2266 125.847 39.1562 126.222 39.0156C126.597 38.875 126.8 38.75 126.831 38.6406C126.941 38.1719 126.995 37.5781 126.995 36.8594V34.75C126.995 33.5938 126.839 32.7734 126.527 32.2891C126.214 31.7891 125.706 31.5391 125.003 31.5391C123.91 31.5391 123.363 31.8828 123.363 32.5703V36.5078C123.363 37.5078 123.417 38.2188 123.527 38.6406C123.558 38.75 123.761 38.875 124.136 39.0156C124.527 39.1562 124.785 39.2266 124.91 39.2266C124.956 39.2266 124.98 39.3594 124.98 39.625C124.995 39.875 124.988 40.0312 124.956 40.0938C124.769 40.0781 124.292 40.0469 123.527 40C122.761 39.9375 122.199 39.9062 121.839 39.9062C121.464 39.9062 120.878 39.9375 120.081 40C119.285 40.0469 118.8 40.0781 118.628 40.0938C118.566 40.0312 118.535 39.875 118.535 39.625C118.535 39.3594 118.566 39.2266 118.628 39.2266C118.8 39.2266 119.089 39.1562 119.495 39.0156C119.902 38.875 120.12 38.75 120.152 38.6406C120.261 38.1719 120.316 37.5781 120.316 36.8594V27.5547C120.316 26.8203 120.277 26.2578 120.199 25.8672C120.12 25.6172 119.714 25.4922 118.98 25.4922H118.769C118.675 25.4922 118.628 25.3359 118.628 25.0234C118.628 24.7578 118.675 24.625 118.769 24.625C119.253 24.5781 119.738 24.5156 120.222 24.4375C120.722 24.3594 121.144 24.2812 121.488 24.2031C121.831 24.125 122.136 24.0469 122.402 23.9688C122.683 23.8906 122.902 23.8281 123.058 23.7812L123.292 23.7109H123.339C123.402 23.7109 123.464 23.7578 123.527 23.8516C123.589 23.9453 123.628 24.0312 123.644 24.1094C123.456 24.8125 123.363 25.6016 123.363 26.4766V30.8359C123.363 30.9453 123.394 31 123.456 31C123.472 31 123.511 30.9688 123.574 30.9062C123.917 30.5156 124.402 30.1953 125.027 29.9453C125.652 29.6797 126.3 29.5469 126.972 29.5469ZM150.275 24.625C150.588 24.625 151.682 24.5781 153.557 24.4844C153.604 24.625 153.627 24.7656 153.627 24.9062C153.627 25.2031 153.596 25.3516 153.533 25.3516C153.393 25.3516 153.111 25.4219 152.69 25.5625C152.268 25.6875 152.041 25.8047 152.01 25.9141C151.9 26.3359 151.846 27 151.846 27.9062V36.6484C151.846 39.3047 151.221 41.375 149.971 42.8594C148.736 44.3594 147.049 45.1094 144.908 45.1094C144.377 45.1094 143.932 44.9688 143.572 44.6875C143.338 44.3125 143.221 43.9062 143.221 43.4688C143.221 43.0781 143.369 42.7422 143.666 42.4609C143.963 42.1797 144.307 42.0391 144.697 42.0391C145.072 42.0391 145.471 42.2734 145.893 42.7422C146.33 43.2266 146.658 43.4688 146.877 43.4688C147.565 43.4688 148.018 42.9219 148.236 41.8281C148.455 40.7344 148.565 39.0703 148.565 36.8359V27.7656C148.565 26.7656 148.502 26.1562 148.377 25.9375C148.299 25.8125 148.08 25.6875 147.721 25.5625C147.361 25.4219 147.096 25.3516 146.924 25.3516C146.861 25.3516 146.83 25.2188 146.83 24.9531C146.83 24.6719 146.846 24.5156 146.877 24.4844C149.033 24.5781 150.166 24.625 150.275 24.625Z" fill="#FBF6E5"/>
<path d="M40.1249 56.4141C40.1249 56.1562 40.1366 55.9395 40.16 55.7637C40.1952 55.5762 40.2245 55.4531 40.2479 55.3945C40.2831 55.3359 40.3124 55.3066 40.3358 55.3066H40.3534L44.5897 55.0957H44.6073C44.6776 55.0957 44.7128 55.1484 44.7128 55.2539C44.7128 55.5117 44.6952 55.7402 44.66 55.9395C44.6249 56.127 44.5839 56.25 44.537 56.3086L44.4843 56.4141L40.2479 56.6074C40.2362 56.6074 40.2245 56.6074 40.2128 56.6074C40.2011 56.6074 40.1835 56.5898 40.16 56.5547C40.1366 56.5195 40.1249 56.4727 40.1249 56.4141ZM50.3666 48.416C50.7065 48.416 51.0756 48.4102 51.474 48.3984C51.8842 48.375 52.265 48.3633 52.6166 48.3633C53.308 48.3633 53.9584 48.457 54.5678 48.6445C55.1772 48.832 55.7104 49.1836 56.1674 49.6992C56.6244 50.2031 56.8529 50.8301 56.8529 51.5801C56.8529 52.5293 56.4838 53.3496 55.7455 54.041C55.019 54.7324 54.1342 55.0781 53.0912 55.0781C52.9037 55.0781 52.7162 55.0488 52.5287 54.9902C52.3412 54.9316 52.2006 54.8789 52.1068 54.832C52.0131 54.7734 51.9545 54.7266 51.9311 54.6914C51.8842 54.6211 51.8549 54.4922 51.8432 54.3047C51.8315 54.1172 51.8549 54.0234 51.9135 54.0234C52.0658 54.1172 52.3295 54.1641 52.7045 54.1641C53.6889 54.1641 54.1811 53.3672 54.1811 51.7734C54.1811 50.168 53.642 49.3652 52.5639 49.3652C52.1537 49.3652 51.8842 49.4121 51.7553 49.5059C51.6147 49.6113 51.5443 50.1855 51.5443 51.2285V57.5215C51.5443 58.1191 51.5854 58.5996 51.6674 58.9629C51.7025 59.1035 51.8959 59.2148 52.2475 59.2969C52.599 59.3789 52.8627 59.4199 53.0385 59.4199C53.0854 59.4199 53.1088 59.5312 53.1088 59.7539C53.1088 59.8945 53.0971 60 53.0736 60.0703C51.6674 60 50.7709 59.9648 50.3842 59.9648L47.8178 60.0703C47.7709 60.0234 47.7475 59.9238 47.7475 59.7715C47.7475 59.5371 47.7709 59.4199 47.8178 59.4199C47.9584 59.4199 48.1752 59.3789 48.4682 59.2969C48.7729 59.2148 48.9428 59.127 48.9779 59.0332C49.0482 58.7637 49.0834 58.248 49.0834 57.4863V50.8418C49.0834 50.1973 49.0482 49.7402 48.9779 49.4707C48.9428 49.377 48.767 49.2715 48.4506 49.1543C48.1459 49.0371 47.9291 48.9785 47.8002 48.9785C47.7533 48.9785 47.7299 48.873 47.7299 48.6621C47.7299 48.4746 47.7475 48.3633 47.7826 48.3281C48.8373 48.3867 49.6986 48.416 50.3666 48.416ZM66.0927 52.1602C66.7724 52.1602 67.3232 52.4473 67.745 53.0215C68.1786 53.5957 68.3954 54.4688 68.3954 55.6406V57.3809C68.3954 58.1309 68.4364 58.6641 68.5185 58.9805C68.5419 59.0625 68.706 59.1562 69.0107 59.2617C69.3154 59.3672 69.5204 59.4199 69.6259 59.4199C69.6611 59.4199 69.6786 59.5195 69.6786 59.7188C69.6904 59.9062 69.6845 60.0234 69.6611 60.0703C69.5322 60.0586 69.163 60.0352 68.5536 60C67.956 59.9531 67.5224 59.9297 67.2529 59.9297C66.9716 59.9297 66.5439 59.9531 65.9697 60C65.4072 60.0352 65.0556 60.0586 64.915 60.0703C64.8681 60.0234 64.8447 59.9062 64.8447 59.7188C64.8447 59.5195 64.8681 59.4199 64.915 59.4199C65.0439 59.4199 65.2489 59.3672 65.5302 59.2617C65.8114 59.1562 65.9638 59.0625 65.9872 58.9805C66.0693 58.6289 66.1103 58.1836 66.1103 57.6445V56.0625C66.1103 55.1953 65.9931 54.5801 65.7587 54.2168C65.5243 53.8418 65.1435 53.6543 64.6161 53.6543C63.7958 53.6543 63.3857 53.9121 63.3857 54.4277V57.3809C63.3857 58.1309 63.4267 58.6641 63.5087 58.9805C63.5322 59.0625 63.6845 59.1562 63.9657 59.2617C64.2587 59.3672 64.4521 59.4199 64.5458 59.4199C64.581 59.4199 64.5986 59.5195 64.5986 59.7188C64.6103 59.9062 64.6044 60.0234 64.581 60.0703C64.4404 60.0586 64.0829 60.0352 63.5087 60C62.9345 59.9531 62.5126 59.9297 62.2431 59.9297C61.9618 59.9297 61.5224 59.9531 60.9247 60C60.3271 60.0352 59.9638 60.0586 59.8349 60.0703C59.788 60.0234 59.7646 59.9062 59.7646 59.7188C59.7646 59.5195 59.788 59.4199 59.8349 59.4199C59.9638 59.4199 60.1806 59.3672 60.4853 59.2617C60.79 59.1562 60.954 59.0625 60.9775 58.9805C61.0595 58.6289 61.1005 58.1836 61.1005 57.6445V50.666C61.1005 50.1152 61.0712 49.6934 61.0126 49.4004C60.954 49.2129 60.6493 49.1191 60.0986 49.1191H59.9404C59.87 49.1191 59.8349 49.002 59.8349 48.7676C59.8349 48.5684 59.87 48.4688 59.9404 48.4688C60.3036 48.4336 60.6669 48.3867 61.0302 48.3281C61.4052 48.2695 61.7216 48.2109 61.9794 48.1523C62.2372 48.0938 62.4657 48.0352 62.665 47.9766C62.8759 47.918 63.04 47.8711 63.1572 47.8359L63.3329 47.7832H63.3681C63.415 47.7832 63.4618 47.8184 63.5087 47.8887C63.5556 47.959 63.5849 48.0234 63.5966 48.082C63.456 48.6094 63.3857 49.2012 63.3857 49.8574V53.127C63.3857 53.209 63.4091 53.25 63.456 53.25C63.4677 53.25 63.497 53.2266 63.5439 53.1797C63.8017 52.8867 64.165 52.6465 64.6337 52.459C65.1025 52.2598 65.5888 52.1602 66.0927 52.1602ZM76.5629 53.1094C76.2231 53.1094 75.9418 53.2441 75.7192 53.5137C75.4965 53.7832 75.35 54.0938 75.2797 54.4453C75.2094 54.7852 75.1743 55.166 75.1743 55.5879C75.1743 57.9668 75.7778 59.1562 76.9848 59.1562C77.477 59.1562 77.8344 58.916 78.0571 58.4355C78.2914 57.9551 78.4086 57.3926 78.4086 56.748C78.4086 54.3223 77.7934 53.1094 76.5629 53.1094ZM73.8735 53.3027C74.6821 52.5293 75.6606 52.1426 76.809 52.1426C77.9575 52.1426 78.9301 52.5293 79.727 53.3027C80.5356 54.0762 80.9399 55.0195 80.9399 56.1328C80.9399 57.2461 80.5414 58.1895 79.7446 58.9629C78.9477 59.7363 77.9692 60.123 76.809 60.123C75.6606 60.123 74.6821 59.7363 73.8735 58.9629C73.0766 58.1895 72.6782 57.2461 72.6782 56.1328C72.6782 55.0195 73.0766 54.0762 73.8735 53.3027ZM85.0996 53.4961H83.957C83.8633 53.4961 83.8164 53.3145 83.8164 52.9512C83.8164 52.8574 83.8281 52.793 83.8515 52.7578C84.5078 52.4297 85.0351 52.1133 85.4336 51.8086C85.6093 51.6797 85.8144 51.5156 86.0488 51.3164C86.2832 51.1055 86.4824 50.9297 86.6465 50.7891C86.8222 50.6367 86.916 50.5547 86.9277 50.543C87.0215 50.543 87.1211 50.5664 87.2265 50.6133C87.332 50.6484 87.3847 50.6895 87.3847 50.7363V52.459H89.2832C89.3769 52.459 89.4238 52.5176 89.4238 52.6348C89.4238 52.9746 89.3652 53.2617 89.248 53.4961H87.3847V57.6621C87.3847 58.5527 87.7011 58.998 88.334 58.998C88.5097 58.998 88.6679 58.9805 88.8086 58.9453C88.9609 58.8984 89.0781 58.8516 89.1601 58.8047C89.2422 58.7578 89.289 58.7344 89.3008 58.7344C89.3476 58.7344 89.3945 58.793 89.4414 58.9102C89.5 59.0273 89.5293 59.1152 89.5293 59.1738C89.5293 59.3145 89.289 59.5078 88.8086 59.7539C88.3281 60 87.8769 60.123 87.455 60.123C86.8105 60.123 86.2539 59.9238 85.7851 59.5254C85.3281 59.1152 85.0996 58.459 85.0996 57.5566V53.4961ZM96.2905 53.1094C95.9507 53.1094 95.6694 53.2441 95.4468 53.5137C95.2241 53.7832 95.0776 54.0938 95.0073 54.4453C94.937 54.7852 94.9018 55.166 94.9018 55.5879C94.9018 57.9668 95.5054 59.1562 96.7124 59.1562C97.2046 59.1562 97.562 58.916 97.7847 58.4355C98.019 57.9551 98.1362 57.3926 98.1362 56.748C98.1362 54.3223 97.521 53.1094 96.2905 53.1094ZM93.6011 53.3027C94.4097 52.5293 95.3882 52.1426 96.5366 52.1426C97.685 52.1426 98.6577 52.5293 99.4546 53.3027C100.263 54.0762 100.667 55.0195 100.667 56.1328C100.667 57.2461 100.269 58.1895 99.4722 58.9629C98.6753 59.7363 97.6968 60.123 96.5366 60.123C95.3882 60.123 94.4097 59.7363 93.6011 58.9629C92.8042 58.1895 92.4057 57.2461 92.4057 56.1328C92.4057 55.0195 92.8042 54.0762 93.6011 53.3027ZM109.046 61.4238C109.046 60.8965 108.062 60.6328 106.093 60.6328C106.058 60.6445 106.034 60.6504 106.022 60.6504C105.636 60.7793 105.401 60.9082 105.319 61.0371C105.237 61.1426 105.196 61.3008 105.196 61.5117C105.196 61.8633 105.378 62.1562 105.741 62.3906C106.116 62.6367 106.532 62.7598 106.989 62.7598C107.599 62.7598 108.091 62.6484 108.466 62.4258C108.853 62.2031 109.046 61.8691 109.046 61.4238ZM106.022 54.832C106.022 55.1367 106.034 55.4004 106.058 55.623C106.081 55.834 106.122 56.0566 106.181 56.291C106.239 56.5137 106.339 56.6836 106.479 56.8008C106.62 56.918 106.802 56.9766 107.024 56.9766C107.247 56.9766 107.423 56.9355 107.552 56.8535C107.692 56.7598 107.786 56.6191 107.833 56.4316C107.892 56.2441 107.927 56.0742 107.938 55.9219C107.962 55.7578 107.974 55.5469 107.974 55.2891C107.974 54.5391 107.903 53.9766 107.763 53.6016C107.622 53.2266 107.341 53.0391 106.919 53.0391C106.708 53.0391 106.532 53.0918 106.392 53.1973C106.263 53.3027 106.175 53.4609 106.128 53.6719C106.081 53.8828 106.052 54.0586 106.04 54.1992C106.028 54.3281 106.022 54.5098 106.022 54.7441C106.022 54.7793 106.022 54.8086 106.022 54.832ZM107.042 52.1074C107.464 52.1074 107.956 52.1836 108.519 52.3359C109.093 52.4883 109.55 52.5645 109.89 52.5645H110.856C110.892 52.5762 110.956 52.6816 111.05 52.8809C111.144 53.0801 111.19 53.2207 111.19 53.3027C111.19 53.4668 111.155 53.5488 111.085 53.5488H110.048C110.001 53.5605 109.978 53.5781 109.978 53.6016C109.978 53.6133 110.019 53.7773 110.101 54.0938C110.194 54.3984 110.241 54.6855 110.241 54.9551C110.241 55.6934 109.942 56.3672 109.345 56.9766C108.747 57.5859 107.997 57.8906 107.095 57.8906C106.626 57.8906 106.228 57.8613 105.899 57.8027C105.759 57.8496 105.653 57.9316 105.583 58.0488C105.513 58.1543 105.478 58.248 105.478 58.3301C105.478 58.4121 105.536 58.4824 105.653 58.541C105.771 58.5879 105.946 58.6289 106.181 58.6641C106.427 58.6875 106.638 58.7109 106.813 58.7344C107.001 58.7461 107.265 58.7578 107.604 58.7695C107.944 58.7812 108.161 58.7871 108.255 58.7871C110.13 58.8809 111.073 59.4961 111.085 60.6328C111.097 61.4883 110.634 62.2324 109.696 62.8652C108.759 63.5098 107.757 63.832 106.69 63.832C105.8 63.832 105.05 63.6562 104.44 63.3047C103.831 62.9531 103.526 62.4844 103.526 61.8984C103.526 61.6406 103.661 61.3652 103.931 61.0723C104.212 60.7793 104.558 60.5684 104.968 60.4395C104.663 60.3105 104.388 60.1055 104.142 59.8242C103.896 59.5312 103.772 59.2148 103.772 58.875C103.772 58.7227 103.813 58.5762 103.896 58.4355C103.978 58.2949 104.106 58.1602 104.282 58.0312C104.47 57.8906 104.599 57.7969 104.669 57.75C104.751 57.7031 104.897 57.6211 105.108 57.5039C104.769 57.3164 104.458 56.9883 104.177 56.5195C103.896 56.0391 103.755 55.5469 103.755 55.043C103.755 54.082 104.071 53.3555 104.704 52.8633C105.349 52.3594 106.128 52.1074 107.042 52.1074ZM119.815 52.1426C120.331 52.1426 120.835 52.3594 121.327 52.793C121.327 53.4023 121.251 53.8535 121.098 54.1465C120.958 54.4395 120.694 54.5859 120.307 54.5859C120.073 54.5859 119.803 54.4512 119.499 54.1816C119.194 53.9121 118.924 53.7773 118.69 53.7773C118.338 53.7773 118.086 53.9766 117.934 54.375C117.793 54.7617 117.723 55.1777 117.723 55.623V57.3984C117.723 58.1367 117.764 58.6641 117.846 58.9805C117.87 59.0625 118.022 59.1562 118.303 59.2617C118.596 59.3672 118.79 59.4199 118.883 59.4199C118.918 59.4199 118.936 59.5195 118.936 59.7188C118.948 59.9062 118.942 60.0234 118.918 60.0703C118.778 60.0586 118.42 60.0352 117.846 60C117.272 59.9531 116.85 59.9297 116.581 59.9297C116.299 59.9297 115.86 59.9531 115.262 60C114.665 60.0352 114.301 60.0586 114.172 60.0703C114.126 60.0234 114.102 59.9062 114.102 59.7188C114.102 59.5195 114.126 59.4199 114.172 59.4199C114.301 59.4199 114.518 59.3672 114.823 59.2617C115.127 59.1562 115.292 59.0625 115.315 58.9805C115.397 58.6289 115.438 58.1836 115.438 57.6445V55.2363C115.438 54.5801 115.333 54.1406 115.122 53.918C115.04 53.8242 114.917 53.748 114.752 53.6895C114.588 53.6309 114.448 53.5898 114.331 53.5664C114.213 53.543 114.155 53.5254 114.155 53.5137C114.155 53.1035 114.184 52.8984 114.243 52.8984C114.383 52.8984 114.618 52.8691 114.946 52.8105C115.274 52.7402 115.702 52.6465 116.229 52.5293C116.756 52.4121 117.167 52.3242 117.46 52.2656C117.577 52.2305 117.641 52.2129 117.653 52.2129C117.711 52.2129 117.77 52.2539 117.829 52.3359C117.887 52.4062 117.917 52.4648 117.917 52.5117C117.893 52.6523 117.876 52.8047 117.864 52.9688C117.852 53.1328 117.84 53.2383 117.829 53.2852C118.403 52.5234 119.065 52.1426 119.815 52.1426ZM127.49 58.8574C127.795 58.8574 128.029 58.7871 128.193 58.6465C128.369 58.4941 128.457 58.3125 128.457 58.1016V56.3262C128.434 56.3379 128.316 56.3789 128.105 56.4492C127.906 56.5078 127.777 56.5488 127.719 56.5723C127.66 56.5957 127.549 56.6426 127.385 56.7129C127.221 56.7715 127.104 56.8301 127.033 56.8887C126.975 56.9355 126.898 57 126.805 57.082C126.711 57.1641 126.647 57.252 126.611 57.3457C126.576 57.4395 126.559 57.5449 126.559 57.6621C126.559 58.084 126.647 58.3887 126.822 58.5762C127.01 58.7637 127.232 58.8574 127.49 58.8574ZM128.193 52.1074C129.014 52.1074 129.641 52.3359 130.074 52.793C130.52 53.2383 130.742 54.0527 130.742 55.2363V58.084C130.742 58.4824 130.883 58.6816 131.164 58.6816C131.363 58.6816 131.563 58.6055 131.762 58.4531C131.844 58.5 131.885 58.5879 131.885 58.7168C131.885 59.0098 131.844 59.2266 131.762 59.3672C131.598 59.5195 131.328 59.6836 130.953 59.8594C130.59 60.0234 130.244 60.1055 129.916 60.1055C129.635 60.1055 129.365 60.0234 129.107 59.8594C128.85 59.6836 128.68 59.4844 128.598 59.2617C128.586 59.2617 128.539 59.2969 128.457 59.3672C128.375 59.4258 128.27 59.4961 128.141 59.5781C128.012 59.6602 127.859 59.7422 127.684 59.8242C127.52 59.9062 127.32 59.9766 127.086 60.0352C126.852 60.0938 126.617 60.123 126.383 60.123C125.738 60.123 125.223 59.9473 124.836 59.5957C124.461 59.2324 124.273 58.7812 124.273 58.2422C124.273 57.9258 124.344 57.6387 124.484 57.3809C124.637 57.1113 124.807 56.8945 124.994 56.7305C125.193 56.5547 125.457 56.3965 125.785 56.2559C126.113 56.1035 126.395 55.9922 126.629 55.9219C126.863 55.8398 127.162 55.752 127.525 55.6582C127.9 55.5527 128.158 55.4766 128.299 55.4297C128.404 55.3945 128.457 55.3066 128.457 55.166V54.5332C128.457 53.5723 128.164 53.0918 127.578 53.0918C126.898 53.0918 126.559 53.4844 126.559 54.2695C126.559 54.5273 126.453 54.7207 126.242 54.8496C126.031 54.9668 125.797 55.0254 125.539 55.0254C125 55.0254 124.631 54.8496 124.432 54.498C124.432 53.9004 124.824 53.3555 125.609 52.8633C126.406 52.3594 127.268 52.1074 128.193 52.1074ZM139.964 52.1602C141.078 52.1602 141.998 52.5469 142.724 53.3203C143.462 54.0938 143.832 54.9902 143.832 56.0098C143.832 57.3105 143.416 58.3242 142.584 59.0508C141.752 59.7773 140.703 60.1406 139.437 60.1406C139.296 60.1406 139.144 60.1289 138.98 60.1055C138.828 60.082 138.699 60.0527 138.593 60.0176C138.488 59.9941 138.429 59.9824 138.418 59.9824C138.371 59.9824 138.347 60.0762 138.347 60.2637V61.1426C138.347 61.8926 138.388 62.4258 138.47 62.7422C138.494 62.8242 138.658 62.918 138.962 63.0234C139.267 63.1289 139.472 63.1816 139.578 63.1816C139.613 63.1816 139.63 63.2754 139.63 63.4629C139.642 63.6621 139.636 63.7852 139.613 63.832C139.484 63.8203 139.115 63.791 138.505 63.7441C137.908 63.709 137.474 63.6914 137.205 63.6914C136.923 63.6914 136.484 63.709 135.886 63.7441C135.289 63.791 134.925 63.8203 134.796 63.832C134.75 63.7852 134.726 63.6621 134.726 63.4629C134.726 63.2754 134.75 63.1816 134.796 63.1816C134.925 63.1816 135.142 63.1289 135.447 63.0234C135.752 62.918 135.916 62.8242 135.939 62.7422C136.021 62.3906 136.062 61.9453 136.062 61.4062V55.2363C136.062 54.5801 135.957 54.1406 135.746 53.918C135.664 53.8242 135.541 53.748 135.377 53.6895C135.212 53.6309 135.072 53.5898 134.955 53.5664C134.837 53.543 134.779 53.5254 134.779 53.5137C134.779 53.1035 134.808 52.8984 134.867 52.8984C135.582 52.8984 136.525 52.7285 137.697 52.3887C138.06 52.2715 138.253 52.2129 138.277 52.2129C138.347 52.2129 138.382 52.2891 138.382 52.4414C138.382 52.5117 138.371 52.6172 138.347 52.7578C138.863 52.3594 139.402 52.1602 139.964 52.1602ZM139.701 53.1797C139.291 53.1797 138.962 53.3027 138.716 53.5488C138.47 53.7949 138.347 54.1055 138.347 54.4805V57.8027C138.347 58.248 138.494 58.5938 138.787 58.8398C139.08 59.0742 139.39 59.1914 139.718 59.1914C140.773 59.1914 141.3 58.3242 141.3 56.5898C141.3 54.3164 140.767 53.1797 139.701 53.1797ZM153.036 52.1602C153.716 52.1602 154.267 52.4473 154.689 53.0215C155.122 53.5957 155.339 54.4688 155.339 55.6406V57.3809C155.339 58.1309 155.38 58.6641 155.462 58.9805C155.485 59.0625 155.65 59.1562 155.954 59.2617C156.259 59.3672 156.464 59.4199 156.569 59.4199C156.605 59.4199 156.622 59.5195 156.622 59.7188C156.634 59.9062 156.628 60.0234 156.605 60.0703C156.476 60.0586 156.107 60.0352 155.497 60C154.9 59.9531 154.466 59.9297 154.196 59.9297C153.915 59.9297 153.487 59.9531 152.913 60C152.351 60.0352 151.999 60.0586 151.858 60.0703C151.812 60.0234 151.788 59.9062 151.788 59.7188C151.788 59.5195 151.812 59.4199 151.858 59.4199C151.987 59.4199 152.192 59.3672 152.474 59.2617C152.755 59.1562 152.907 59.0625 152.931 58.9805C153.013 58.6289 153.054 58.1836 153.054 57.6445V56.0625C153.054 55.1953 152.937 54.5801 152.702 54.2168C152.468 53.8418 152.087 53.6543 151.56 53.6543C150.739 53.6543 150.329 53.9121 150.329 54.4277V57.3809C150.329 58.1309 150.37 58.6641 150.452 58.9805C150.476 59.0625 150.628 59.1562 150.909 59.2617C151.202 59.3672 151.396 59.4199 151.489 59.4199C151.525 59.4199 151.542 59.5195 151.542 59.7188C151.554 59.9062 151.548 60.0234 151.525 60.0703C151.384 60.0586 151.026 60.0352 150.452 60C149.878 59.9531 149.456 59.9297 149.187 59.9297C148.905 59.9297 148.466 59.9531 147.868 60C147.271 60.0352 146.907 60.0586 146.778 60.0703C146.732 60.0234 146.708 59.9062 146.708 59.7188C146.708 59.5195 146.732 59.4199 146.778 59.4199C146.907 59.4199 147.124 59.3672 147.429 59.2617C147.733 59.1562 147.898 59.0625 147.921 58.9805C148.003 58.6289 148.044 58.1836 148.044 57.6445V50.666C148.044 50.1152 148.015 49.6934 147.956 49.4004C147.898 49.2129 147.593 49.1191 147.042 49.1191H146.884C146.814 49.1191 146.778 49.002 146.778 48.7676C146.778 48.5684 146.814 48.4688 146.884 48.4688C147.247 48.4336 147.61 48.3867 147.974 48.3281C148.349 48.2695 148.665 48.2109 148.923 48.1523C149.181 48.0938 149.409 48.0352 149.608 47.9766C149.819 47.918 149.983 47.8711 150.101 47.8359L150.276 47.7832H150.312C150.358 47.7832 150.405 47.8184 150.452 47.8887C150.499 47.959 150.528 48.0234 150.54 48.082C150.4 48.6094 150.329 49.2012 150.329 49.8574V53.127C150.329 53.209 150.353 53.25 150.4 53.25C150.411 53.25 150.441 53.2266 150.487 53.1797C150.745 52.8867 151.108 52.6465 151.577 52.459C152.046 52.2598 152.532 52.1602 153.036 52.1602ZM161.766 52.3535C162.024 52.3535 162.44 52.3359 163.014 52.3008C163.588 52.2539 163.94 52.2246 164.069 52.2129C164.104 52.3184 164.122 52.4414 164.122 52.582C164.122 52.7695 164.098 52.8633 164.051 52.8633C163.899 52.8633 163.676 52.9102 163.383 53.0039C163.102 53.0977 162.962 53.2031 162.962 53.3203L162.979 53.4785C163.003 53.666 163.46 54.8086 164.35 56.9062C165.147 55.1836 165.581 54.2344 165.651 54.0586C165.721 53.8945 165.756 53.7188 165.756 53.5312C165.756 53.4609 165.721 53.3789 165.651 53.2852C165.592 53.1914 165.463 53.0977 165.264 53.0039C165.065 52.9102 164.813 52.8633 164.508 52.8633C164.462 52.8633 164.438 52.7578 164.438 52.5469C164.438 52.3945 164.45 52.2832 164.473 52.2129C164.614 52.2246 164.96 52.2539 165.51 52.3008C166.073 52.3359 166.495 52.3535 166.776 52.3535C167.022 52.3535 167.35 52.3359 167.76 52.3008C168.171 52.2539 168.469 52.2246 168.657 52.2129C168.704 52.3066 168.727 52.4062 168.727 52.5117C168.727 52.7461 168.704 52.8633 168.657 52.8633C168.481 52.8633 168.217 52.9219 167.866 53.0391C167.526 53.1562 167.297 53.332 167.18 53.5664L163.911 60.6504C162.938 62.7715 161.801 63.832 160.501 63.832C160.149 63.832 159.862 63.7383 159.639 63.5508C159.428 63.3633 159.323 63.1465 159.323 62.9004C159.323 62.5371 159.458 62.2617 159.727 62.0742C161.215 62.0742 162.182 61.6172 162.628 60.7031C162.897 60.1289 163.079 59.7422 163.172 59.543L160.553 53.7422L160.465 53.5312C160.348 53.2852 160.167 53.1152 159.921 53.0215C159.686 52.916 159.481 52.8633 159.305 52.8633C159.258 52.8633 159.235 52.7754 159.235 52.5996C159.235 52.3652 159.247 52.2363 159.27 52.2129C159.364 52.2129 159.733 52.2363 160.378 52.2832C161.022 52.3301 161.485 52.3535 161.766 52.3535ZM171.252 56.4141C171.252 56.1562 171.264 55.9395 171.287 55.7637C171.322 55.5762 171.352 55.4531 171.375 55.3945C171.41 55.3359 171.44 55.3066 171.463 55.3066H171.481L175.717 55.0957H175.734C175.805 55.0957 175.84 55.1484 175.84 55.2539C175.84 55.5117 175.822 55.7402 175.787 55.9395C175.752 56.127 175.711 56.25 175.664 56.3086L175.611 56.4141L171.375 56.6074C171.363 56.6074 171.352 56.6074 171.34 56.6074C171.328 56.6074 171.311 56.5898 171.287 56.5547C171.264 56.5195 171.252 56.4727 171.252 56.4141Z" fill="#FBF6E5"/>
</g>
<defs>
<clipPath id="clip0_100:109">
<rect width="216" height="81" fill="white"/>
</clipPath>
</defs>
</svg>
